<?xml version="1.0" encoding="utf-8"?>
<!-- Generator: Adobe Illustrator 21.0.2, SVG Export Plug-In . SVG Version: 6.00 Build 0)  -->
<svg version="1.1" id="Camada_0_xA0_Imagem_1_" xmlns="http://www.w3.org/2000/svg" xmlns:xlink="http://www.w3.org/1999/xlink"
	 x="0px" y="0px" viewBox="0 0 274 275" style="enable-background:new 0 0 274 275;" xml:space="preserve">
<g>
	<path d="M1,150c0-7.7,0-15.3,0-23c0.3-1.4,0.7-2.8,0.9-4.3C8.2,67,47.7,20.8,101.7,6c8-2.2,16.2-3.3,24.3-5c8,0,16,0,24,0
		c1.1,0.3,2.2,0.8,3.3,0.9c55.4,6.2,101.7,45.6,116.5,99.3c2.3,8.4,3.5,17.2,5.2,25.8c0,7.7,0,15.3,0,23c-0.3,1.4-0.7,2.8-0.9,4.3
		c-6.3,55.7-45.7,102-99.8,116.7c-8,2.2-16.2,3.3-24.3,5c-8,0-16,0-24,0c-1.1-0.3-2.2-0.8-3.3-0.9c-55.4-6.2-101.8-45.6-116.5-99.3
		C3.8,167.3,2.7,158.6,1,150z M107.3,71.2c-0.6-0.3-1.1-0.5-1.7-0.8C95.1,89,84.9,107.7,74,126c-14.1,23.7-32.2,45.7-40.4,49.8
		c1.3-1.7,2.4-3,3.2-4.3c8.6-13.2,17.8-26.2,25.5-39.9c6.5-11.6,8.9-24.7,7.7-38.2c-1.5-16.7-10.6-25.9-24.8-24.2
		c-4.5,0.6-9.3,2.1-13,4.6C15.5,85,7.1,101.4,5.3,121.1c-0.8,9.2,3.8,16.4,10.1,18.3s13.5-2,18.2-10.3c6-10.5,7.5-22,5.7-33.8
		c-0.5-3-2.6-6.9-5.1-8.1c-3.8-1.9-7.8,0.5-10.4,3.9c-7.2,9.5-8.6,20.5-8.6,33.4c5.3-6,11.3-9.2,12.1-17.1c0.5-4.4,1.4-9.5,5.5-12.6
		c0.8,0.5,1.1,0.6,1.3,0.8c0.3,0.4,0.6,0.9,0.7,1.3c0.3,12.7-2.3,24.7-11.7,33.8c-2.2,2.2-7.2,3.7-9.8,2.7c-2.5-1-4.6-5.6-5.1-8.8
		c-2.4-17.2,12.7-42.4,28.7-48.9c14.2-5.8,22.5-0.7,21.2,14.4c-0.9,11.2-3.3,22.4-6.7,33.1c-6.8,21.4-18.2,40.6-29.3,60
		c-1.2,2.2-2.5,4.3-3.5,6.6c-0.3,0.7-0.2,2.2,0.3,2.6c0.5,0.4,2,0.3,2.6-0.2c2.2-1.5,4.2-3.2,6.2-5c23.8-21.7,41.6-48,57.7-75.5
		c1.7-2.8,3.3-5.7,5.2-8.8c0.2,0.8,0.5,1.2,0.4,1.4c-0.5,1.4-1.1,2.8-1.7,4.1C82,124.3,75,140.3,71.6,157.6c-2,10.1-2.1,20.2,1.5,30
		c0.6,1.7,2.4,2.9,3.7,4.3c1.2-1.3,2.9-2.3,3.5-3.8c2.1-4.9,4.1-9.8,5.8-14.9c6.7-19.9,13.5-39.8,24.9-57.6c3.2-5,6.8-9.7,10.7-15.2
		c-1.3,7.6-2.9,14.1-3.3,20.7c-0.9,14.8,4.7,22.1,19.1,25.4c-3,7.9-6,15.7-8.8,23.2c-5.7-2.3-10.6-4.7-15.8-6.2
		c-5.3-1.5-10.7-1-14.7,3.6c-4.4,5-4.6,15.8-0.7,21.1c4.9,6.6,12.2,8.3,19.9,4.6c2.7-1.3,5.4-2.9,6.8-3.7c4.4,8.8,7.8,17.7,13,25.5
		c6.1,9.2,15.1,11.3,25.6,7.8c4.6-1.5,8.9-3.7,13.3-5.7c4.7-2.1,9.2-4.7,14-6.6c12.2-4.8,17.3-3.3,25.4,7.3c1,1.3,2,2.6,3.4,4.4
		c8.1-10,18-6.8,28.5-3.4c-0.6-1.4-0.8-2-1.1-2.5c-9.4-13.7-26.6-20.2-42.7-15.5c-6.7,2-13,5.1-19.5,7.6c-7.3,2.8-14.6,5.5-22,8.1
		c-7.1,2.5-12.1-0.5-16.2-6.4c-6.2-8.9-7.5-19.4-9.8-29.6c-0.2-0.8,0.5-1.8,0.8-2.7c4.4-10,8.7-20.1,13.3-30c1-2.3,2.6-4.6,4.5-6.1
		c10.9-8.2,19.5-18.1,25.6-30.2c4.3-8.6,6.2-17.6,3.8-27.1c-2.2-8.7-8-10.9-14.6-4.7c-5,4.7-9.7,10.4-12.5,16.6
		c-6.4,14-11.7,28.6-17.3,43c-1.8,4.7-3.7,5.8-8.1,3.2c-4.6-2.7-7.1-7-7.8-12.2c-2.4-16.7,3.5-36.4,24.2-46.7
		c3.2-1.6,6.5-3,10.3-4.7c-13.6-2.7-18.1-2.4-23.8,4c-8.8,9.8-18.3,19.5-24.9,30.7c-8.6,14.5-14.8,30.4-21.8,45.9
		c-2.6,5.8-4.3,12-6.3,18c-0.6-0.2-1.1-0.3-1.7-0.5C89.1,141.4,98.2,106.3,107.3,71.2z"/>
	<path d="M152.5,138c0.6-3.2,0.8-5.2,1.4-7c4.5-13.5,9-27.1,13.8-40.6c1.1-3.2,3.3-6.2,5.5-8.8c1.1-1.3,3.7-2.5,5-2.1
		c1.4,0.4,2.7,2.9,2.9,4.6c1,9.3-0.8,18.2-4.7,26.7C171.4,121.8,163.4,130.3,152.5,138z"/>
	<path d="M108.3,171.1c3.4,1.4,7,2.5,10.2,4.4c3.5,2.1,3.7,6.1,0.9,8.9c-4.2,4.2-9.7,5.1-15.2,4.2c-4.1-0.7-5.9-5.3-5.1-11
		C99.7,172.1,103.6,171.8,108.3,171.1z"/>
</g>
</svg>
