<?xml version="1.0" encoding="utf-8"?>
<!-- Generator: Adobe Illustrator 21.0.2, SVG Export Plug-In . SVG Version: 6.00 Build 0)  -->
<svg fill="white" version="1.1" id="Objeto_Inteligente_de_Vetor_xA0_Imagem_xA0_Imagem_1_"
	 xmlns="http://www.w3.org/2000/svg" xmlns:xlink="http://www.w3.org/1999/xlink" x="0px" y="0px" viewBox="0 0 273 167"
	 style="enable-background:new 0 0 273 167;" xml:space="preserve">
<g>
	<path d="M163,168c-17.5-6.5-23.1-21.7-27.5-38.1c-3.5,1.8-6.8,3.7-10.2,5.2c-8.2,3.6-15.9,1.6-21.3-5.4c-4.3-5.6-4.3-16.8,0.2-22.6
		c4.3-5.4,10.3-6.2,16.3-4.6c6.2,1.7,12,4.6,18.6,7.2c3.2-8,6.6-16.6,10-25.2c-15.9-3-22.6-11.3-21.6-27.3
		c0.4-6.4,1.9-12.7,3.1-19.7c-2.6,3.4-5.1,6.4-7.4,9.5c-14,19.4-22.3,41.5-30.2,63.9c-2.2,6.3-4.6,12.5-7.3,18.5
		c-0.8,1.7-2.8,2.9-4.3,4.3c-1.4-1.6-3.4-2.9-4.1-4.7c-4.3-11.8-3.7-23.8-0.8-35.9C81,74,89.5,56.4,97.9,38.9
		c0.9-1.9,1.8-3.9,2.1-6.1c-1.6,2.7-3.3,5.4-4.9,8.1c-18,30.3-37.9,59.2-63.9,83.4c-3.2,3-6.4,5.9-9.9,8.4c-1.4,1-3.4,1.1-5.2,1.6
		c0.3-1.7,0.3-3.6,1.1-5c5.7-10,11.7-19.8,17.2-29.8C45.3,80,55.3,60,59.3,37.8c1.3-7.2,1.4-14.9,0.7-22.2c-0.7-6.7-5.2-9.6-12-9.5
		c-7.2,0.1-13.8,2.4-19.5,6.8C15.7,22.9,7.6,36,4.3,51.9c-0.4,1.9-0.4,4-0.3,6c0.3,5.2,0.6,11.1,6.3,13c5.7,1.9,10.3-1.5,13.8-5.9
		c7.5-9.4,10.3-20.4,10.3-32.2c0-1.2-1.1-2.5-1.7-3.7c-1.1,0.9-2.7,1.5-3.2,2.7c-1.4,3-3,6.1-3.3,9.4c-0.7,6.4-4,11-8.8,14.9
		c-1.4,1.1-2.2,2.9-3.9,5.2c-0.8-2.2-1.3-2.9-1.3-3.6c0.1-9.6,1.6-18.9,6.1-27.5c0.8-1.6,1.9-3.2,3-4.6c3.2-3.8,7.2-6.4,12.2-5.2
		c5.2,1.3,5.8,6.1,6.2,10.4c0.9,10.1,0.5,20.2-3.9,29.4c-2.4,5.1-5.9,10.2-10.2,13.8C17.1,81,6.7,77.6,2.8,67.2
		C2.1,65.5,1.6,63.7,1,62c0-3,0-6,0-9c0.4-1.3,0.7-2.5,1.1-3.8C8.6,26.7,19.6,8,44,1c4,0,8,0,12,0c12.6,4.8,16.9,15.1,18.1,27.4
		c1.3,13.5-2,26.1-7.5,38.3C59,83.5,47.7,98,36.2,112.2c-1.1,1.4-2.2,2.8-2.5,4.9c1.9-1.7,3.8-3.3,5.7-5c17.8-17.1,32-37,44.7-58.1
		c8.9-14.8,17.3-30,25.9-45c1.3-2.3,2.9-4.4,4.4-6.7c0.6,0.3,1.1,0.6,1.7,0.8c-10.4,38.5-20.8,76.9-31.2,115.4
		c0.6,0.2,1.2,0.4,1.8,0.5c2.4-6.8,4.8-13.6,7.3-20.4c8.2-21.7,17.6-42.8,32.3-61.1c5.4-6.6,11.2-12.9,16.6-19.5
		c8-9.7,18.1-9.9,29.5-6.9c-4.3,1.9-8.4,3.5-12.3,5.5c-18.6,9.3-27.3,24.6-27,45.2c0.1,7,2.4,13.1,8.4,17.2
		c5.2,3.5,8.4,2.3,10.2-3.5c5.1-16.9,11.3-33.5,20.5-48.6c3.4-5.6,7.6-11.1,12.5-15.4c8.2-7.3,15.4-4.2,17.3,6.6
		c1.7,9.6-0.2,18.6-4.6,27.1c-7,13.6-17.1,24.5-29.6,33.3c-1.7,1.2-3.4,3.2-4.1,5.2c-4.3,11.7-7.9,23.7-15.7,33.8
		c-0.5,0.6-0.8,1.6-0.6,2.2c3,9.8,5.1,20.1,9.5,29.2c5.2,10.8,10.7,12.6,22.2,9.3c9.1-2.6,17.8-6.4,26.6-9.9
		c9.9-3.9,19.7-8.2,30.7-7.7c15.5,0.7,27.5,7.8,37.2,21.7c-12.3-4.6-23.6-8.8-32.9,3.2c-2.6-3.1-4.9-5.9-7.3-8.6
		c-5.4-6.2-12-8.2-19.8-5.7c-4.4,1.4-8.8,3-13.1,4.8c-9.2,3.8-18.3,7.7-27.5,11.5C169.7,168,166.3,168,163,168z M166.3,74.6
		c19.6-13.2,32.1-30.4,32-54.7c0-2.9-2.2-5.7-3.4-8.6c-2.6,1.7-5.3,3.4-7.9,5c-0.1,0.1-0.2,0.3-0.3,0.4
		C176.2,34.7,170.6,54.4,166.3,74.6z M115.9,111c-7.6,1-9.6,2.3-10.4,7.3c-0.9,5.8,1.1,10.5,5.6,11.3c6.2,1.1,12.3,0.2,17.2-4.2
		c3.3-3,3.1-7.4-0.8-9.6C123.9,113.7,119.8,112.6,115.9,111z"/>
</g>
</svg>
