<?xml version="1.0" encoding="utf-8"?>
<!-- Svg Vector Icons : http://www.onlinewebfonts.com/icon -->
<!DOCTYPE svg PUBLIC "-//W3C//DTD SVG 1.1//EN" "http://www.w3.org/Graphics/SVG/1.1/DTD/svg11.dtd">
<svg fill="#5c5c62" version="1.1" xmlns="http://www.w3.org/2000/svg" xmlns:xlink="http://www.w3.org/1999/xlink" x="0px" y="0px" viewBox="0 0 1000 1000" enable-background="new 0 0 1000 1000" xml:space="preserve">
<metadata> Svg Vector Icons : http://www.onlinewebfonts.com/icon </metadata>
<g><path d="M930.8,730.2l-8.7,20.2c-2.9,6.7-5.8,13-8.7,18.8c-37.5,69.3-91.9,123.6-163.1,163.1C678.2,970.8,601.3,990,519.5,990c-134.7,0-243.4-42.8-326.2-128.5C110.5,776.9,69.2,656.1,69.2,499.3c0-174.2,49.6-302.1,148.7-383.9C299.6,45.1,400.2,10,519.5,10c130.9,0,238.6,42.3,323.3,127c37.5,38.5,65.9,82.3,85.2,131.3H743.2c-2.9-3.8-5.8-7.5-8.7-10.8c-2.9-3.4-6.3-7-10.1-10.8c-53.9-52.9-122.2-79.4-204.9-79.4c-83.7,0-152.5,26.5-206.4,79.4c-56.8,54.8-85.2,139-85.2,252.6c0,112.6,28.4,197.2,85.2,254c53.9,52.9,122.7,79.4,206.4,79.4c80.8,0,149.1-26.9,204.9-80.8l11.5-11.5c2.9-2.9,5.8-6.3,8.7-10.1H930.8z"/></g>
</svg>